<svg width="46" height="46" viewBox="0 0 46 46" fill="none" xmlns="http://www.w3.org/2000/svg">
<circle cx="23" cy="23" r="20.5" fill="#91A119" stroke="#D1E066" stroke-width="5"/>
<path d="M14.4891 14.4949C19.433 19.4388 26.7414 19.2239 31.0405 14.4949C29.1059 10.4108 19.9919 6.58462 14.4891 14.4949Z" fill="white"/>
<path d="M16.6386 35.7753C12.9844 33.984 7.05173 27.65 12.5545 16.6444C14.4891 18.794 17.4555 20.5566 20.7228 20.7285L16.6386 35.7753Z" fill="white"/>
<path d="M22.8723 27.3921C19.648 27.3921 19.648 30.1865 22.8723 30.1865C26.0966 30.1865 26.0966 27.3921 22.8723 27.3921Z" fill="white"/>
<path d="M21.3676 31.6912C20.5757 31.6912 19.7151 31.9768 19.648 32.7659C19.5768 33.6023 20.5282 34.0556 21.3676 34.0556H24.5919C25.3658 34.0556 26.1649 33.5368 26.0966 32.7659C26.0328 32.0466 25.314 31.6912 24.5919 31.6912H21.3676Z" fill="white"/>
<path d="M29.1059 35.7753C32.6885 33.984 38.5209 27.65 33.19 16.6444C32.0436 17.8625 28.633 20.3846 25.0218 20.7285L29.1059 35.7753Z" fill="white"/>
</svg>
