<svg width="46" height="46" viewBox="0 0 46 46" fill="none" xmlns="http://www.w3.org/2000/svg">
<circle cx="23" cy="23" r="20.5" fill="#EF70EF" stroke="#FCD0FC" stroke-width="5"/>
<path d="M25.3135 35.0799C25.9583 36.1615 28.3224 37.6757 27.0329 35.2151C26.7673 34.7084 26.1454 33.4953 25.9583 32.9168C25.4345 31.2977 25.5959 30.2157 25.5337 29.3194C25.0253 29.0807 24.5178 28.7705 24.024 28.3738C24.024 32.9161 24.6688 33.9984 25.3135 35.0799Z" fill="white"/>
<path fill-rule="evenodd" clip-rule="evenodd" d="M23.1642 17.2626C22.0178 15.0414 18.1343 11.072 11.7717 12.9636C10.482 16.1879 10.9119 21.9916 16.9306 24.571C16.0707 25.0726 14.4801 26.8065 14.996 29.7299C16.113 30.2086 18.4622 30.6163 20.7945 29.5281C20.7323 30.4187 20.8937 31.4939 20.3698 33.1028C20.1826 33.6776 19.5606 34.8831 19.295 35.3867C18.0053 37.8318 20.3698 36.3271 21.0147 35.2523C21.6595 34.1776 22.3044 33.1021 22.3044 28.5884C22.5967 28.3552 22.8842 28.0918 23.1642 27.7953C26.4315 30.9437 29.9711 30.3969 31.3324 29.7299C31.8483 26.6877 30.2577 25.0231 29.3978 24.571C35.9324 21.8727 35.5598 15.7084 34.5567 12.9636C28.1941 11.1251 24.3106 15.0636 23.1642 17.2626ZM19.295 22.1402C21.7025 22.1402 22.8776 20.134 23.1642 19.1308C23.5941 20.2056 24.4539 22.1402 27.0334 22.1402C25.5287 25.3645 20.5848 25.3645 19.295 22.1402Z" fill="white"/>
</svg>
