<svg width="92" height="92" viewBox="0 0 92 92" fill="none" xmlns="http://www.w3.org/2000/svg">
<circle cx="45.8719" cy="45.8718" r="32.6742" fill="#EF70EF" stroke="#FCD0FC" stroke-width="5"/>
<path d="M49.41 64.3458C50.396 65.9999 54.0115 68.3155 52.0394 64.5526C51.6333 63.7776 50.6822 61.9224 50.396 61.0377C49.595 58.5616 49.8418 56.9068 49.7466 55.5362C48.9692 55.1711 48.1931 54.6967 47.4379 54.0901C47.4379 61.0366 48.4239 62.6918 49.41 64.3458Z" fill="white"/>
<path fill-rule="evenodd" clip-rule="evenodd" d="M46.123 37.0976C44.3697 33.7007 38.4307 27.6302 28.7002 30.523C26.7279 35.4539 27.3853 44.3297 36.5898 48.2744C35.2749 49.0415 32.8422 51.6932 33.6312 56.164C35.3395 56.8961 38.9321 57.5195 42.4989 55.8553C42.4038 57.2173 42.6506 58.8617 41.8495 61.3222C41.5632 62.2013 40.612 64.0449 40.2058 64.8149C38.2334 68.5543 41.8495 66.2531 42.8357 64.6095C43.8218 62.9658 44.808 61.3211 44.808 54.4183C45.2551 54.0615 45.6947 53.6588 46.123 53.2054C51.1197 58.0203 56.5328 57.184 58.6147 56.164C59.4037 51.5114 56.9711 48.9657 55.6562 48.2744C65.6496 44.1479 65.0798 34.7207 63.5457 30.523C53.8153 27.7114 47.8762 33.7346 46.123 37.0976ZM40.2058 44.5569C43.8876 44.5569 45.6847 41.4888 46.123 39.9547C46.7804 41.5983 48.0953 44.5569 52.0401 44.5569C49.739 49.4879 42.1782 49.4879 40.2058 44.5569Z" fill="white"/>
<circle cx="46" cy="46" r="42.5" stroke="#FCD0FC" stroke-width="7"/>
</svg>
