<svg width="46" height="46" viewBox="0 0 46 46" fill="none" xmlns="http://www.w3.org/2000/svg">
<circle cx="23" cy="23" r="20.5" fill="#FF8000" stroke="#FFBE7C" stroke-width="5"/>
<path d="M11.1776 21.7102V10.3177C11.1776 10.3177 11.6075 9.88782 13.1121 9.88782C14.6168 9.88782 15.2617 10.3177 15.2617 10.3177V21.7102C14.9751 21.9969 14.3159 22.5701 13.1121 22.5701C11.9084 22.5701 11.2492 21.9969 11.1776 21.7102Z" fill="white"/>
<path d="M17.8411 21.7102V10.3177C17.8411 10.3177 18.486 9.88782 19.7757 9.88782C21.0654 9.88782 21.7103 10.3177 21.7103 10.3177V21.7102C21.2804 22.1402 21.0654 22.5701 19.7757 22.5701C18.486 22.5701 18.1277 21.9969 17.8411 21.7102Z" fill="white"/>
<path d="M24.5047 18.271V10.3177C24.5047 10.3177 24.9346 9.88782 26.4393 9.88782C27.9439 9.88782 28.3738 10.3177 28.3738 10.3177V18.271C28.3738 18.271 27.729 18.9159 26.4393 18.9159C25.1495 18.9159 24.5047 18.271 24.5047 18.271Z" fill="white"/>
<path d="M30.7383 18.271V10.3177C30.7383 10.3177 31.3832 9.88782 32.6729 9.88782C33.9626 9.88782 34.6075 10.3177 34.6075 10.3177V18.271C34.6075 18.271 33.9626 18.9159 32.6729 18.9159C31.3832 18.9159 30.7383 18.271 30.7383 18.271Z" fill="white"/>
<path d="M25.1495 20.6355C25.1495 20.6355 24.2897 21.2803 24.2897 22.8925C24.2897 24.5046 25.1495 25.1495 25.1495 25.1495H34.6075V20.6355H25.1495Z" fill="white"/>
<path d="M34.6075 27.514H22.1402V25.5794H11.1776V31.1682C11.1776 31.1682 15.8474 34.5161 16.7664 34.8224C17.6853 35.1287 18.271 35.6822 20.2056 35.6822C21.5813 35.6822 30.3801 32.6729 34.6075 31.1682V27.514Z" fill="white"/>
</svg>
