<svg width="46" height="46" viewBox="0 0 46 46" fill="none" xmlns="http://www.w3.org/2000/svg">
<circle cx="23" cy="23" r="20.5" fill="#E62829" stroke="#F49898" stroke-width="5"/>
<path d="M13.3271 27.0841C13.3271 31.3832 16.1932 34.0343 17.6262 34.8225C13.6711 27.0842 17.6979 22.1402 20.2057 20.6355C19.1309 26.4393 25.7944 29.0187 26.2243 31.5982C26.5683 33.6617 24.2181 35.324 23 35.8972C32.0281 36.1122 34.6075 27.2991 31.3832 24.2898C28.6232 21.7138 28.5888 18.9876 29.2337 17.6262C26.4393 17.6262 25.3645 21.2804 25.7944 23C25.0063 22.3552 23.8323 20.6157 24.7197 18.486C25.7944 15.9066 26.0094 13.1122 24.7197 11.1776C23.6879 9.62994 21.4237 9.31468 20.2057 9.45798C22.3552 14.187 20.4923 15.9782 18.701 17.4113C16.9097 18.8443 13.3271 22.7851 13.3271 27.0841Z" fill="white"/>
</svg>
