<svg width="92" height="92" viewBox="0 0 92 92" fill="none" xmlns="http://www.w3.org/2000/svg">
<circle cx="45.8718" cy="45.8718" r="32.6742" fill="#E62829" stroke="#F49898" stroke-width="5"/>
<path d="M31.079 52.1177C31.079 58.6923 35.4621 62.7467 37.6536 63.952C31.6049 52.1177 37.7632 44.5569 41.5984 42.2558C39.9547 51.1315 50.1454 55.0763 50.8028 59.0211C51.3288 62.1769 47.7347 64.7191 45.8719 65.5957C59.6785 65.9244 63.6233 52.4465 58.6924 47.8442C54.4715 43.9047 54.4189 39.7355 55.405 37.6536C51.1315 37.6536 49.4879 43.242 50.1454 45.8718C48.94 44.8857 47.1447 42.2254 48.5017 38.9685C50.1454 35.0237 50.4741 30.7502 48.5017 27.7917C46.9238 25.4248 43.4612 24.9427 41.5984 25.1618C44.8857 32.3939 42.0367 35.1333 39.2972 37.3249C36.5578 39.5164 31.079 45.5431 31.079 52.1177Z" fill="white"/>
<circle cx="46" cy="46" r="42.5" stroke="#F49898" stroke-width="7"/>
</svg>
