<svg width="46" height="46" viewBox="0 0 46 46" fill="none" xmlns="http://www.w3.org/2000/svg">
<circle cx="23" cy="23" r="20.5" fill="#81B9EF" stroke="#CFE6FC" stroke-width="5"/>
<path d="M17.1963 15.4391C13.585 20.0821 11.6791 31.1307 11.1776 36.0746C13.585 34.183 15.6199 31.1307 16.3364 29.841C22.5701 29.841 26.4392 27.2615 26.4392 26.1867C26.4392 25.112 24.2897 26.33 22.5701 26.6166C20.8505 26.9033 19.4891 26.4733 19.1308 26.1867C23 25.5419 26.8692 24.6821 29.8785 21.4578C31.2542 19.2223 29.5919 19.6665 28.5888 20.1681C24.9776 21.8877 22.0685 21.8877 21.2804 21.4578C30.7383 18.4484 35.2523 10.7101 34.6075 10.0653C34.0916 9.54937 32.0997 10.2802 31.1682 10.7101C23.8598 14.3643 19.1308 12.9518 17.1963 15.4391Z" fill="white"/>
</svg>
