<svg width="46" height="46" viewBox="0 0 46 46" fill="none" xmlns="http://www.w3.org/2000/svg">
<circle cx="23" cy="23" r="20.5" fill="#704170" stroke="#AC76AC" stroke-width="5"/>
<path fill-rule="evenodd" clip-rule="evenodd" d="M22.9668 10.7476C14.2101 10.7476 12.6734 17.4825 14.2504 23.8598C14.5701 25.1528 15.0178 26.431 15.5593 27.6355C15.6556 27.7456 15.6953 27.8608 15.7008 27.9439C17.5425 31.8808 20.3762 34.9564 22.9668 35.0373C25.4454 35.1148 28.1751 31.9826 29.9191 27.9439C29.9207 27.9401 29.9223 27.9362 29.9241 27.9322C30.4804 26.642 30.936 25.2595 31.2508 23.8598C32.6847 17.4825 31.1932 10.7476 22.9668 10.7476ZM17.593 15.6915C16.0883 16.7663 18.4528 22.1401 20.3874 21.2803C22.322 20.4205 19.0977 14.6168 17.593 15.6915ZM28.1257 15.6915C26.1911 14.7243 23.4827 20.5925 25.5463 21.2803C28.1257 22.1401 29.2005 16.2289 28.1257 15.6915Z" fill="white"/>
<path d="M14.2504 23.8598C13.9316 23.3582 12.907 22.3981 11.3594 22.5701C9.42477 22.785 7.06029 26.4392 7.9201 27.299C8.77991 28.1588 9.63972 25.7943 10.4995 26.2243C11.3594 26.6542 10.9294 29.0186 12.4341 29.2336C13.9388 29.4486 13.5089 27.299 14.5836 27.299C15.1111 27.299 15.4065 27.4608 15.5593 27.6355C15.0178 26.431 14.5701 25.1528 14.2504 23.8598Z" fill="white"/>
<path d="M33.9294 22.5701C32.8977 22.5701 31.7137 23.4299 31.2508 23.8598C30.936 25.2595 30.4804 26.642 29.9241 27.9322C30.0221 27.7138 30.4141 27.299 31.2508 27.299C32.3155 27.299 31.9949 29.0186 33.2846 29.2336C34.9808 29.5163 34.3594 26.6542 35.4341 26.2243C36.5089 25.7943 36.7238 28.1588 37.7986 27.299C38.8734 26.4392 35.7565 22.5701 33.9294 22.5701Z" fill="white"/>
</svg>
