<svg width="92" height="92" viewBox="0 0 92 92" fill="none" xmlns="http://www.w3.org/2000/svg">
<circle cx="45.8718" cy="45.8718" r="32.6742" fill="#3FA129" stroke="#8FDB7D" stroke-width="5"/>
<path d="M41.5888 29.7361C35.0429 39.7239 28.0012 56.2723 25.8193 62.6371H38.9109C40.6961 49.4179 42.4814 37.9613 41.5888 29.7361Z" fill="white"/>
<path d="M61.2262 62.6371H48.1346C54.7994 46.4216 63.2098 33.9466 66.5819 29.7361C65.6893 43.249 61.2262 62.6371 61.2262 62.6371Z" fill="white"/>
<path d="M54.6804 21.217C50.2173 26.2109 47.1428 34.632 45.7543 38.8426C44.5641 46.1278 44.6633 55.391 44.8617 59.112C47.242 55.2931 52.3001 45.697 53.4902 42.9552C54.6804 37.6676 55.0801 24.1546 54.6804 21.217Z" fill="white"/>
</svg>
