<svg width="46" height="46" viewBox="0 0 46 46" fill="none" xmlns="http://www.w3.org/2000/svg">
<circle cx="23" cy="23" r="20.5" fill="#3FA129" stroke="#8FDB7D" stroke-width="5"/>
<path d="M20.1993 12.449C15.9191 18.9799 11.3146 29.8007 9.88785 33.9626H18.4483C19.6157 25.3187 20.783 17.8274 20.1993 12.449Z" fill="white"/>
<path d="M33.04 33.9626H24.4796C28.8376 23.3594 34.3371 15.2022 36.5421 12.449C35.9584 21.2849 33.04 33.9626 33.04 33.9626Z" fill="white"/>
<path d="M28.7598 6.87848C25.8415 10.1439 23.831 15.6504 22.9231 18.4036C22.1449 23.1674 22.2097 29.2245 22.3394 31.6576C23.8959 29.1604 27.2034 22.8856 27.9816 21.0928C28.7598 17.6353 29.0212 8.79934 28.7598 6.87848Z" fill="white"/>
</svg>
