<svg width="46" height="46" viewBox="0 0 46 46" fill="none" xmlns="http://www.w3.org/2000/svg">
<circle cx="23" cy="23" r="20.5" fill="#915121" stroke="#DDAA84" stroke-width="5"/>
<path d="M21.6153 21.0654L13.0171 24.5046C10.6097 25.4676 12.014 26.4822 13.0171 26.8691C15.2383 27.8722 20.0676 30.0504 21.6153 30.7383C23.1629 31.4261 24.8396 31.0249 25.4844 30.7383C27.3474 29.8785 31.6751 27.9009 34.0826 26.8691C36.49 25.8373 35.0857 24.8629 34.0826 24.5046C31.933 23.5732 27.204 21.5813 25.4844 21.0654C23.7648 20.5495 22.1885 20.8504 21.6153 21.0654Z" fill="white"/>
<path d="M11.0825 28.1588L21.6153 33.1028C23.1629 33.8292 24.8396 33.4055 25.4844 33.1028L36.0171 28.8037C36.1891 30.3514 34.7991 31.3115 34.0826 31.5981C31.6464 32.6729 26.5162 34.9514 25.4844 35.4673C24.4527 35.9831 22.4751 35.6822 21.6153 35.4673C19.8956 34.6791 15.7685 32.8018 13.0171 31.5981C10.2657 30.3944 10.581 28.8037 11.0825 28.1588Z" fill="white"/>
<path d="M13.0171 14.6168V9.88782H17.7461V14.6168H13.0171Z" fill="white"/>
<path d="M19.0358 18.271V15.0467H22.2601V18.271H19.0358Z" fill="white"/>
<path d="M29.1386 16.7663V12.4673H33.2227V16.7663H29.1386Z" fill="white"/>
</svg>
