<svg width="46" height="46" viewBox="0 0 46 46" fill="none" xmlns="http://www.w3.org/2000/svg">
<circle cx="23" cy="23" r="20.5" fill="#3FD8FF" stroke="#B1EFFF" stroke-width="5"/>
<path d="M10.7477 14.6168V19.1308L15.2617 19.1308L15.2617 14.6168H10.7477Z" fill="white"/>
<path d="M10.7477 27.729V32.243H15.2617V27.729H10.7477Z" fill="white"/>
<path d="M22.5701 32.028L25.7944 35.2523L22.5701 38.4766L19.3458 35.2523L22.5701 32.028Z" fill="white"/>
<path fill-rule="evenodd" clip-rule="evenodd" d="M30.0935 27.729V19.1308L22.5701 14.6168L15.2617 19.1308V27.729L22.5701 32.028L30.0935 27.729ZM19.3458 21.9252V26.0093H17.4112V20.8505L22.5701 17.4112V19.7757L19.3458 21.9252Z" fill="white"/>
<path d="M25.7944 11.3925L22.5701 8.16821L19.3458 11.3925L22.5701 14.6168L25.7944 11.3925Z" fill="white"/>
<path d="M30.0935 14.6168V19.1308H34.6075V14.6168H30.0935Z" fill="white"/>
<path d="M30.0935 27.729V32.243H34.6075V27.729H30.0935Z" fill="white"/>
</svg>
