<svg width="92" height="92" viewBox="0 0 92 92" fill="none" xmlns="http://www.w3.org/2000/svg">
<circle cx="46.585" cy="45.8718" r="32.6742" fill="#3FD8FF" stroke="#B1EFFF" stroke-width="5"/>
<path d="M27.8474 33.0514V39.9547L34.7507 39.9547L34.7507 33.0514H27.8474Z" fill="white"/>
<path d="M27.8474 53.1039V60.0073H34.7507V53.1039H27.8474Z" fill="white"/>
<path d="M45.9276 59.6786L50.8585 64.6095L45.9276 69.5405L40.9966 64.6095L45.9276 59.6786Z" fill="white"/>
<path fill-rule="evenodd" clip-rule="evenodd" d="M57.4331 53.1039V39.9547L45.9276 33.0514L34.7507 39.9547V53.1039L45.9276 59.6786L57.4331 53.1039ZM40.9966 44.2282V50.4741H38.038V42.5846L45.9276 37.3249V40.9409L40.9966 44.2282Z" fill="white"/>
<path d="M50.8585 28.1204L45.9276 23.1895L40.9966 28.1204L45.9276 33.0514L50.8585 28.1204Z" fill="white"/>
<path d="M57.4331 33.0514V39.9547H64.3365V33.0514H57.4331Z" fill="white"/>
<path d="M57.4331 53.1039V60.0073H64.3365V53.1039H57.4331Z" fill="white"/>
</svg>
