<svg width="46" height="46" viewBox="0 0 46 46" fill="none" xmlns="http://www.w3.org/2000/svg">
<circle cx="23" cy="23" r="20.5" fill="#9141CB" stroke="#CEA3ED" stroke-width="5"/>
<path d="M12.83 14.1995C12.83 11.3613 15.1393 9.06061 17.988 9.06061C20.8367 9.06061 23.1461 11.3613 23.1461 14.1995C23.1461 17.0376 20.8367 19.3383 17.988 19.3383C15.1393 19.3383 12.83 17.0376 12.83 14.1995Z" fill="white"/>
<path d="M25.3283 21.1171C25.3283 19.3706 26.7495 17.9548 28.5025 17.9548C30.2556 17.9548 31.6767 19.3706 31.6767 21.1171C31.6767 22.8637 30.2556 24.2795 28.5025 24.2795C26.7495 24.2795 25.3283 22.8637 25.3283 21.1171Z" fill="white"/>
<path d="M22.7493 26.0583C20.4484 26.0583 18.5832 27.9166 18.5832 30.209C15.409 30.209 9.06061 30.6833 9.06061 32.5807C9.06061 34.9525 19.3767 35.5455 22.7493 35.5455C26.1219 35.5455 36.438 34.9525 36.2396 32.5807C36.0809 30.6833 29.9574 30.209 26.9154 30.209C26.9154 27.9166 25.0502 26.0583 22.7493 26.0583Z" fill="white"/>
</svg>
