<svg width="46" height="46" viewBox="0 0 46 46" fill="none" xmlns="http://www.w3.org/2000/svg">
<circle cx="23" cy="23" r="20.5" fill="#AFA981" stroke="#D9D7C6" stroke-width="5"/>
<path fill-rule="evenodd" clip-rule="evenodd" d="M17.6262 9.45795H29.0187L36.757 17.1963V28.5888L29.0187 36.3271H17.6262L9.88785 28.5888V17.1963L17.6262 9.45795ZM34.1776 23.6449C32.114 28.2879 26.8692 32.3146 24.5047 33.7477C26.7259 33.7477 30.4426 33.1836 32.028 31.5981C33.5327 30.0935 34.1776 25.4361 34.1776 23.6449ZM12.4673 23.6449C14.5308 27.428 19.7757 31.9564 22.1402 33.7477C19.919 33.3894 15.2617 32.4579 14.4019 31.5981C13.5421 30.7383 12.7539 25.9377 12.4673 23.6449ZM27.9439 12.4673C30.1794 13.3271 32.6012 16.5514 33.5327 18.0561C33.5327 16.9813 33.3607 14.6598 32.6729 13.972C31.985 13.2841 29.2336 12.6822 27.9439 12.4673Z" fill="white"/>
</svg>
