<svg width="46" height="46" viewBox="0 0 46 46" fill="none" xmlns="http://www.w3.org/2000/svg">
<circle cx="23" cy="23" r="20.5" fill="#60A1B8" stroke="#B2D2DE" stroke-width="5"/>
<path fill-rule="evenodd" clip-rule="evenodd" d="M9.75757 26.6281L14.4865 11.3664L31.4678 11.1515L31.8978 13.301L20.9351 16.9552L22.6548 23.4038L9.75757 26.6281ZM15.5613 14.3758C15.5613 13.5448 16.235 12.8711 17.066 12.8711C17.897 12.8711 18.5707 13.5448 18.5707 14.3758C18.5707 15.2068 17.897 15.8805 17.066 15.8805C16.235 15.8805 15.5613 15.2068 15.5613 14.3758Z" fill="white"/>
<path d="M11.0473 28.5627L23.0847 25.5534L26.094 35.0113L22.6548 36.516L11.0473 28.5627Z" fill="white"/>
<path fill-rule="evenodd" clip-rule="evenodd" d="M23.5146 18.4599L28.2435 33.9365L36.1968 27.058L32.5426 15.4506L23.5146 18.4599ZM26.9538 21.0393C26.9538 19.8522 27.9162 18.8898 29.1034 18.8898C30.2905 18.8898 31.2529 19.8522 31.2529 21.0393C31.2529 22.2265 30.2905 23.1889 29.1034 23.1889C27.9162 23.1889 26.9538 22.2265 26.9538 21.0393Z" fill="white"/>
</svg>
