<svg width="46" height="46" viewBox="0 0 46 46" fill="none" xmlns="http://www.w3.org/2000/svg">
<circle cx="23" cy="23" r="20.5" fill="#2980EF" stroke="#B5D4FB" stroke-width="5"/>
<path fill-rule="evenodd" clip-rule="evenodd" d="M22.8878 9.48437C21.6451 13.539 20.4658 17.3868 16.5514 22.3551C10.9626 29.4486 16.538 37.6168 23.4299 37.6168C30.3084 37.6168 35.429 29.6703 30.3084 22.3551C25.8247 15.9498 24.9463 12.9377 23.4601 7.84188L23.4299 7.73828C23.2426 8.32704 23.0646 8.9078 22.8878 9.48437ZM18.486 30.7383C20.0337 31.7701 22.1402 31.8255 23.4299 31.813C24.7196 31.8006 27.0056 31.6541 28.5888 30.5233C30.0935 29.4486 30.1651 29.9501 30.0935 30.5233C29.5919 32.0997 27.557 35.2523 23.4299 35.2523C19.3028 35.2523 17.2679 32.0997 16.7664 30.5233C16.6947 30.1651 16.9383 29.7065 18.486 30.7383Z" fill="white"/>
</svg>
