<svg width="92" height="92" viewBox="0 0 92 92" fill="none" xmlns="http://www.w3.org/2000/svg">
<circle cx="45.8719" cy="45.8718" r="32.6742" fill="#2980EF" stroke="#B5D4FB" stroke-width="5"/>
<path fill-rule="evenodd" clip-rule="evenodd" d="M45.7003 25.2024C43.7998 31.4032 41.9962 37.2878 36.0099 44.8858C27.4629 55.7339 35.9893 68.2257 46.5293 68.2257C57.0487 68.2257 64.8797 56.0729 57.0487 44.8858C50.1917 35.0901 48.8482 30.4837 46.5755 22.6905L46.5293 22.5321C46.2428 23.4325 45.9706 24.3207 45.7003 25.2024ZM38.9685 57.7063C41.3354 59.2842 44.5568 59.369 46.5293 59.3499C48.5017 59.3309 51.9977 59.1069 54.4188 57.3776C56.7199 55.7339 56.8295 56.5009 56.7199 57.3776C55.9529 59.7882 52.8409 64.6096 46.5293 64.6096C40.2176 64.6096 37.1057 59.7882 36.3386 57.3776C36.2291 56.8297 36.6016 56.1284 38.9685 57.7063Z" fill="white"/>
</svg>
